<svg xmlns="http://www.w3.org/2000/svg" viewBox="0 0 512 512" width="512" height="512">
<defs>

<radialGradient id="mango-full-skin" cx="32%" cy="24%" r="78%">
  <stop offset="0%" stop-color="#ffe36b"/>
  <stop offset="48%" stop-color="#ffb13a"/>
  <stop offset="100%" stop-color="#e86925"/>
</radialGradient>
<radialGradient id="mango-full-flesh" cx="34%" cy="24%" r="82%">
  <stop offset="0%" stop-color="#fff2a0"/>
  <stop offset="55%" stop-color="#ffd057"/>
  <stop offset="100%" stop-color="#ff962f"/>
</radialGradient>
<linearGradient id="mango-full-leaf" x1="0" x2="1" y1="0" y2="1">
  <stop offset="0%" stop-color="#a9f07a"/>
  <stop offset="100%" stop-color="#2b8b43"/>
</linearGradient>
<radialGradient id="mango-full-shine" cx="50%" cy="50%" r="50%">
  <stop offset="0%" stop-color="#ffffff" stop-opacity=".72"/>
  <stop offset="100%" stop-color="#ffffff" stop-opacity="0"/>
</radialGradient>
<clipPath id="mango-full-roundClip">
  <ellipse cx="256" cy="262" rx="166" ry="174"/>
</clipPath>
</defs>
<g transform="rotate(-13 256 256)">
<path d="M304 86 C395 127 419 240 366 342 C314 442 191 449 132 365 C82 294 100 176 176 119 C212 91 252 75 304 86Z" fill="url(#mango-full-skin)"/>
<path d="M307 104 C368 156 373 265 319 353 C276 422 190 413 151 354 C213 362 279 287 292 197 C298 158 293 129 307 104Z" fill="#f86b4a" opacity=".28"/>
<path d="M149 218 C195 148 269 116 338 139" fill="none" stroke="#fff6a8" stroke-width="10" opacity=".34" stroke-linecap="round"/>
<circle cx="150" cy="142" r="1.8" fill="#fff8b8" opacity="0.16"/><circle cx="197" cy="215" r="2.8" fill="#fff8b8" opacity="0.21"/><circle cx="244" cy="288" r="3.8" fill="#fff8b8" opacity="0.27"/><circle cx="291" cy="155" r="1.8" fill="#fff8b8" opacity="0.33"/><circle cx="338" cy="228" r="2.8" fill="#fff8b8" opacity="0.16"/><circle cx="169" cy="301" r="3.8" fill="#fff8b8" opacity="0.21"/><circle cx="216" cy="168" r="1.8" fill="#fff8b8" opacity="0.27"/><circle cx="263" cy="241" r="2.8" fill="#fff8b8" opacity="0.33"/><circle cx="310" cy="314" r="3.8" fill="#fff8b8" opacity="0.16"/><circle cx="357" cy="181" r="1.8" fill="#fff8b8" opacity="0.21"/><circle cx="188" cy="254" r="2.8" fill="#fff8b8" opacity="0.27"/><circle cx="235" cy="327" r="3.8" fill="#fff8b8" opacity="0.33"/><circle cx="282" cy="194" r="1.8" fill="#fff8b8" opacity="0.16"/><circle cx="329" cy="267" r="2.8" fill="#fff8b8" opacity="0.21"/><circle cx="160" cy="340" r="3.8" fill="#fff8b8" opacity="0.27"/><circle cx="207" cy="207" r="1.8" fill="#fff8b8" opacity="0.33"/><circle cx="254" cy="280" r="2.8" fill="#fff8b8" opacity="0.16"/><circle cx="301" cy="147" r="3.8" fill="#fff8b8" opacity="0.21"/><circle cx="348" cy="220" r="1.8" fill="#fff8b8" opacity="0.27"/><circle cx="179" cy="293" r="2.8" fill="#fff8b8" opacity="0.33"/><circle cx="226" cy="160" r="3.8" fill="#fff8b8" opacity="0.16"/><circle cx="273" cy="233" r="1.8" fill="#fff8b8" opacity="0.21"/><circle cx="320" cy="306" r="2.8" fill="#fff8b8" opacity="0.27"/><circle cx="151" cy="173" r="3.8" fill="#fff8b8" opacity="0.33"/>
<ellipse cx="196" cy="180" rx="44" ry="18" fill="#fff" opacity=".35" transform="rotate(-34 196 180)"/>
<ellipse cx="174" cy="224" rx="18" ry="7" fill="#fff" opacity=".2" transform="rotate(-28 174 224)"/><path d="M240 104 C226 64 242 42 282 42" fill="none" stroke="#5a3319" stroke-width="15" stroke-linecap="round"/>
<path d="M282 48 C332 32 362 62 370 101 C325 100 292 86 282 48Z" fill="url(#mango-full-leaf)"/>
<path d="M294 58 C318 63 341 75 361 94" fill="none" stroke="#daf6b9" stroke-width="3" opacity=".55" stroke-linecap="round"/>
</g>
</svg>
